<?xml version="1.0" standalone="no"?>
<!DOCTYPE svg PUBLIC "-//W3C//DTD SVG 20010904//EN"
 "http://www.w3.org/TR/2001/REC-SVG-20010904/DTD/svg10.dtd">
<svg version="1.0" xmlns="http://www.w3.org/2000/svg"
 width="1536.000000pt" height="1536.000000pt" viewBox="0 0 1536.000000 1536.000000"
 preserveAspectRatio="xMidYMid meet">
<metadata>
Created by potrace 1.11, written by Peter Selinger 2001-2013
</metadata>
<g transform="translate(0.000000,1536.000000) scale(0.100000,-0.100000)"
fill="#000000" stroke="none">
<path d="M7348 15355 c-2 -1 -57 -6 -123 -9 -66 -4 -138 -8 -160 -11 -22 -2
-69 -6 -105 -9 -36 -4 -81 -8 -100 -11 -19 -2 -60 -6 -90 -9 -30 -3 -64 -8
-76 -10 -11 -2 -45 -7 -75 -10 -30 -3 -67 -8 -84 -11 -65 -11 -91 -15 -110
-19 -11 -2 -42 -7 -69 -10 -27 -4 -52 -9 -56 -11 -3 -2 -26 -6 -50 -10 -25 -3
-53 -8 -63 -11 -10 -3 -30 -7 -45 -10 -15 -2 -67 -13 -117 -24 -49 -11 -101
-22 -115 -25 -14 -3 -33 -8 -42 -11 -9 -3 -25 -6 -35 -8 -43 -9 -190 -48 -213
-56 -14 -6 -34 -11 -45 -13 -11 -2 -27 -7 -35 -10 -8 -3 -35 -11 -60 -17 -64
-17 -399 -128 -437 -145 -17 -8 -34 -15 -38 -15 -6 0 -103 -36 -160 -60 -170
-70 -252 -105 -259 -112 -6 -4 -18 -8 -28 -8 -10 0 -18 -5 -18 -12 0 -6 -3 -9
-6 -6 -3 3 -37 -9 -75 -28 -38 -19 -74 -34 -79 -34 -6 0 -10 -5 -10 -12 0 -6
-3 -9 -6 -5 -8 7 -366 -177 -466 -240 -21 -12 -42 -23 -48 -23 -5 0 -10 -4
-10 -10 0 -5 -5 -10 -11 -10 -11 0 -85 -43 -189 -109 -30 -20 -58 -34 -62 -33
-5 1 -8 -3 -8 -8 0 -6 -7 -10 -15 -10 -8 0 -15 -4 -15 -8 0 -5 -10 -14 -22
-21 -31 -16 -55 -31 -107 -66 -24 -17 -51 -34 -60 -40 -9 -5 -18 -12 -21 -15
-3 -3 -27 -20 -55 -39 -53 -37 -307 -225 -338 -251 -10 -8 -27 -22 -37 -30 -9
-8 -32 -26 -50 -40 -74 -56 -284 -238 -414 -360 -190 -178 -374 -370 -581
-605 -111 -126 -334 -414 -457 -590 -42 -60 -80 -114 -85 -120 -23 -27 -133
-205 -133 -214 0 -6 -4 -11 -8 -11 -5 0 -15 -12 -23 -27 -8 -16 -17 -30 -20
-33 -3 -3 -24 -39 -48 -80 -23 -41 -53 -93 -67 -115 -13 -22 -27 -47 -31 -55
-4 -8 -9 -17 -12 -20 -3 -3 -19 -32 -36 -65 -16 -33 -46 -90 -67 -127 -21 -36
-39 -72 -40 -80 -2 -7 -5 -15 -8 -18 -6 -6 -78 -153 -115 -235 -15 -33 -40
-87 -55 -120 -15 -33 -31 -71 -35 -85 -4 -14 -11 -29 -15 -35 -10 -13 -119
-293 -165 -425 -49 -141 -153 -476 -161 -520 -4 -19 -9 -39 -13 -45 -3 -5 -6
-14 -7 -20 -1 -5 -7 -30 -14 -55 -7 -25 -13 -52 -15 -60 -2 -8 -8 -35 -15 -60
-7 -25 -13 -54 -15 -65 -2 -11 -12 -60 -23 -110 -11 -49 -23 -103 -25 -120 -3
-16 -7 -37 -10 -45 -3 -8 -8 -33 -11 -55 -4 -34 -12 -78 -30 -170 -2 -11 -7
-51 -12 -90 -8 -70 -10 -83 -13 -87 -3 -3 -7 -39 -15 -128 -4 -36 -8 -81 -11
-100 -30 -245 -38 -412 -39 -820 0 -310 5 -486 19 -635 2 -22 7 -69 10 -105 3
-36 8 -81 10 -100 3 -19 7 -57 10 -85 9 -94 16 -150 20 -165 4 -13 7 -36 20
-130 2 -14 11 -65 20 -115 9 -49 18 -102 21 -118 2 -15 11 -59 19 -97 8 -38
17 -82 20 -97 3 -16 25 -107 50 -203 25 -96 47 -186 50 -200 23 -102 133 -436
225 -680 73 -194 80 -211 143 -350 13 -30 35 -80 47 -110 41 -96 243 -490 321
-623 94 -162 115 -197 199 -333 121 -194 402 -576 574 -779 57 -67 110 -129
121 -141 6 -6 35 -39 65 -74 30 -35 145 -154 255 -264 178 -179 261 -258 415
-392 78 -69 85 -75 105 -93 73 -66 493 -388 545 -417 11 -6 28 -18 38 -27 10
-10 23 -17 29 -17 6 0 13 -3 15 -8 3 -9 179 -124 253 -167 28 -16 52 -32 55
-35 6 -6 8 -7 208 -122 84 -49 251 -137 371 -196 238 -117 235 -116 371 -173
52 -22 109 -46 125 -53 25 -11 87 -36 190 -76 11 -5 47 -18 80 -30 33 -12 69
-26 80 -30 52 -22 481 -157 523 -165 9 -2 17 -4 17 -5 0 -1 7 -3 15 -5 8 -1
35 -8 60 -15 25 -7 53 -14 62 -15 10 -2 22 -6 27 -10 5 -3 22 -7 38 -9 15 -2
46 -8 68 -14 22 -6 52 -13 68 -16 15 -3 37 -8 48 -11 12 -4 31 -8 42 -10 12
-1 42 -7 67 -13 25 -6 59 -13 75 -16 17 -3 46 -8 65 -11 19 -4 46 -8 60 -10
14 -2 48 -8 76 -14 28 -5 71 -12 95 -15 24 -3 53 -8 64 -10 11 -2 47 -7 80
-10 33 -4 71 -8 85 -11 39 -6 108 -14 185 -20 39 -3 88 -7 110 -10 126 -14
291 -19 630 -20 337 0 488 4 660 19 105 9 181 17 205 21 14 2 53 7 87 10 34 3
70 7 80 9 24 5 99 15 148 21 99 13 277 46 505 95 77 17 390 96 450 114 8 3 60
18 115 35 55 16 154 48 220 71 66 23 132 44 148 47 15 3 27 9 27 14 0 5 3 8 8
7 6 -3 82 23 127 42 11 5 81 34 155 64 230 93 500 220 727 342 111 60 364 207
421 245 24 16 45 29 48 29 3 0 20 11 38 25 18 14 38 25 44 25 6 0 12 4 14 8 2
4 46 37 98 72 109 73 150 101 166 115 7 6 25 19 40 30 46 32 239 178 244 185
3 3 48 40 100 82 52 41 106 86 120 98 35 30 142 125 209 185 64 56 425 418
486 485 89 99 235 270 310 365 44 55 82 102 85 105 12 12 154 204 232 315 294
419 562 900 764 1375 9 19 19 44 24 55 5 11 30 74 55 140 26 66 51 129 56 140
9 21 95 265 98 277 1 4 4 13 6 20 9 27 59 184 61 193 1 6 9 35 18 65 10 30 20
66 22 80 3 14 11 44 19 67 8 23 16 52 19 65 2 13 11 50 19 83 9 33 18 72 21
87 2 15 7 31 9 36 3 4 8 27 12 52 4 25 8 47 10 51 2 3 7 21 10 40 3 19 8 45
10 59 3 14 8 36 10 50 7 36 33 188 41 234 3 21 7 48 10 60 2 11 7 46 10 76 3
30 7 57 9 60 2 3 6 37 10 75 4 39 8 80 10 93 2 13 7 56 10 95 4 40 8 92 11
117 14 145 19 309 18 670 0 371 -4 473 -18 615 -3 28 -8 82 -11 120 -2 39 -6
81 -9 95 -2 14 -7 57 -11 95 -4 39 -8 77 -10 85 -2 8 -6 38 -10 65 -3 28 -8
64 -11 80 -4 29 -28 166 -58 330 -8 44 -29 141 -46 215 -18 74 -34 146 -37
159 -2 14 -6 28 -9 33 -3 5 -7 18 -9 31 -3 12 -19 72 -36 132 -17 61 -32 115
-33 120 -2 6 -6 17 -9 25 -9 23 -49 153 -52 170 -2 8 -9 29 -16 45 -7 17 -13
32 -14 35 -49 164 -239 639 -301 753 -8 15 -12 27 -7 27 4 0 4 4 -2 8 -5 4
-48 84 -94 177 -66 134 -224 422 -281 515 -5 8 -37 60 -71 115 -99 160 -283
428 -384 559 -79 103 -239 302 -249 311 -7 6 -18 19 -26 31 -14 19 -59 71
-190 218 -61 68 -380 388 -456 456 -33 30 -93 84 -134 120 -40 36 -78 70 -84
75 -13 12 -112 94 -140 115 -11 8 -30 25 -43 38 -13 12 -26 22 -29 22 -2 0
-28 19 -57 43 -179 144 -619 451 -701 488 -14 7 -26 16 -26 21 0 4 -5 8 -11 8
-7 0 -35 14 -63 32 -140 87 -672 368 -706 373 -3 1 -21 8 -40 17 -146 65 -242
107 -260 113 -3 1 -18 7 -33 13 -16 7 -30 12 -33 12 -2 0 -23 9 -47 19 -23 11
-94 38 -157 61 -63 23 -135 49 -160 58 -25 9 -47 17 -50 17 -8 1 -84 26 -105
35 -29 12 -283 84 -405 115 -58 15 -112 29 -120 32 -8 3 -22 7 -30 8 -8 1 -26
5 -40 8 -32 7 -169 37 -195 43 -41 8 -231 44 -265 49 -19 3 -46 7 -60 10 -71
12 -307 44 -330 44 -8 -1 -33 2 -55 5 -74 10 -129 16 -230 22 -55 4 -118 9
-140 11 -46 4 -792 12 -797 8z"/>
</g>
</svg>
